<svg width="109" height="122" fill="none" xmlns="http://www.w3.org/2000/svg"><path d="M60.925 14.46C45.334 18.987 30.538 9.221 21.318 3.772l-5.659 57.842c2.096 2.305 11.82 7.293 33.95 8.802 22.131 1.509 31.436-3.563 33.322-6.287L75.386 6.916c-.838 1.676 1.132 3.018-14.46 7.544Z" fill="url(#a)"/><path stroke="#5D7E88" stroke-width="3" d="M22.809.154 11.492 109.55M74.36 3.593l13.129 109.193"/><path d="M25.176 97.201c-11.2-6.4-21 2.667-24.5 8-1.333 2.167-1.6 7.3 8 10.5 12 4 45.5 5.5 63.5 5.5s40-9.5 35.5-12.5-18.5-3.5-27-3.5-7 4-19 6.5-22.5-6.5-36.5-14.5Z" fill="url(#b)"/><defs><linearGradient id="a" x1="48.351" y1="3.772" x2="48.351" y2="70.691" gradientUnits="userSpaceOnUse"><stop stop-color="#218BAD"/><stop offset="1" stop-color="#4EA3A8"/></linearGradient><linearGradient id="b" x1="54.135" y1="95" x2="54.135" y2="121.201" gradientUnits="userSpaceOnUse"><stop stop-color="#fff"/><stop offset="1" stop-color="#DFEFF5"/></linearGradient></defs></svg>