<svg width="1107" height="280" fill="none" xmlns="http://www.w3.org/2000/svg"><g filter="url(#a)"><path fill-rule="evenodd" clip-rule="evenodd" d="M189.229 50.879c38.863 1.078 68.511 1.855 73.16 1.855 2.89 0 11.226.289 22.823.69 3.228.111 6.708.232 10.393.357L302.063 149l8.26-94.733c48.944 1.563 118.505 3.157 130.09-1.533 11.048-4.472 62.373-.78 107.552 2.469 25.536 1.836 49.108 3.531 62.333 3.531 21.973 0 88.992-4.68 142.606-8.424 35.743-2.496 65.529-4.576 72.04-4.576 7.007 0 26.646 2.41 49.014 5.154 29.591 3.63 63.959 7.846 80.18 7.846 3.093 0 6.294.012 9.568.024 26.874.1 58.654.216 75.884-6.024 14.55-5.271 36.03-2.603 49.23-.964 4.33.537 7.76.964 9.77.964 8.14 0 7.12-60-21.36-52s-61.04 15-103.764 24c-40.07 8.441-85.508.17-109.463-4.19-1.587-.29-3.081-.561-4.472-.81a999.917 999.917 0 0 1-8.04-1.484c-22.125-4.146-52.494-9.837-80.463-4.516-13.575 2.583-21.684 7.02-28.951 10.995-9.615 5.26-17.757 9.714-35.138 8.005-9.777-.96-27.698-3.872-48.111-7.188-43.302-7.034-97.813-15.89-109.567-11.812-9.027 3.132-27.2 3.267-43.959 3.391-15.347.114-29.508.22-34.371 2.61-10.173 5-33.57 10-69.175 5-6.804-.956-15.65-2.313-25.659-3.848-42.372-6.5-105.583-16.197-122.864-12.153-10.21 2.39-27.39 3.866-44.101 5.302-18.255 1.568-35.949 3.088-43.385 5.698-8.395 2.948-20.678.335-33.1-2.306-8.65-1.84-17.367-3.694-24.885-3.694-5.544 0-12.207-.55-19.481-1.15-16.75-1.383-36.74-3.033-53.763 1.15-24.414 6-30.518 12-30.518 19 0 5.6 4.07 11 6.104 13l22.5.66L40.621 207 51.61 46.948l22.582.656V131l11.655-83.059c30.105.87 61.877 1.778 90.073 2.567V149l13.309-98.121Z" fill="#fff"/></g><path d="M1093.29 27c-1.97 64.322-19.21 199.857-72.34 227.423-66.416 34.458-132.831 1.723-176.712-74.085-35.104-60.646-67.234-122.4-77.512-148.244-22.929 14.932-83.543 40.046-153.753 41.424-70.21 1.379-120.118-25.344-134.745-41.424 2.767 40.201 3.067 92.77-43.423 112.067-58.113 24.121-88.647-29.49-93.39-44.997-3.796-12.404-7.353-32.038-12.492-67.07" stroke="#5B5B5B" stroke-width="5"/><ellipse cx="325.948" cy="49.074" rx="5.948" ry="8.49" fill="#FC8E19"/><ellipse cx="325.948" cy="49.074" rx="5.948" ry="8.49" fill="#FC8E19"/><ellipse cx="325.948" cy="49.074" rx="5.948" ry="8.49" fill="#AB2083"/><ellipse cx="408.037" cy="140.765" rx="5.948" ry="8.49" fill="#FC8E19"/><ellipse cx="408.037" cy="140.765" rx="5.948" ry="8.49" fill="#FC8E19"/><ellipse cx="408.037" cy="140.765" rx="5.948" ry="8.49" fill="#AB2083"/><ellipse cx="485.366" cy="54.168" rx="5.948" ry="8.49" fill="#FC8E19"/><ellipse cx="485.366" cy="54.168" rx="5.948" ry="8.49" fill="#FC8E19"/><ellipse cx="485.366" cy="54.168" rx="5.948" ry="8.49" fill="#AB2083"/><ellipse cx="604.334" cy="66.053" rx="5.948" ry="8.49" fill="#FC8E19"/><ellipse cx="604.334" cy="66.053" rx="5.948" ry="8.49" fill="#FC8E19"/><ellipse cx="604.334" cy="66.053" rx="5.948" ry="8.49" fill="#AB2083"/><ellipse cx="737.578" cy="55.866" rx="5.948" ry="8.49" fill="#FC8E19"/><ellipse cx="737.578" cy="55.866" rx="5.948" ry="8.49" fill="#FC8E19"/><ellipse cx="737.578" cy="55.866" rx="5.948" ry="8.49" fill="#AB2083"/><ellipse cx="831.563" cy="144.161" rx="5.948" ry="8.49" fill="#FC8E19"/><ellipse cx="831.563" cy="144.161" rx="5.948" ry="8.49" fill="#FC8E19"/><ellipse cx="831.563" cy="144.161" rx="5.948" ry="8.49" fill="#AB2083"/><ellipse cx="933.875" cy="271.51" rx="5.948" ry="8.49" fill="#FC8E19"/><ellipse cx="933.875" cy="271.51" rx="5.948" ry="8.49" fill="#FC8E19"/><ellipse cx="933.875" cy="271.51" rx="5.948" ry="8.49" fill="#AB2083"/><ellipse cx="1048.09" cy="213.778" rx="5.948" ry="8.49" fill="#FC8E19"/><ellipse cx="1048.09" cy="213.778" rx="5.948" ry="8.49" fill="#FC8E19"/><ellipse cx="1048.09" cy="213.778" rx="5.948" ry="8.49" fill="#AB2083"/><ellipse cx="1098.05" cy="49.074" rx="5.948" ry="8.49" fill="#FC8E19"/><ellipse cx="1098.05" cy="49.074" rx="5.948" ry="8.49" fill="#FC8E19"/><ellipse cx="1098.05" cy="49.074" rx="5.948" ry="8.49" fill="#AB2083"/><ellipse cx="344.984" cy="89.826" rx="5.948" ry="8.49" fill="#FC8E19"/><ellipse cx="344.984" cy="89.826" rx="5.948" ry="8.49" fill="#FC8E19"/><ellipse cx="344.984" cy="89.826" rx="5.948" ry="8.49" fill="#FC8E19"/><ellipse cx="453.244" cy="142.463" rx="5.948" ry="8.49" fill="#FC8E19"/><ellipse cx="453.244" cy="142.463" rx="5.948" ry="8.49" fill="#FC8E19"/><ellipse cx="453.244" cy="142.463" rx="5.948" ry="8.49" fill="#FC8E19"/><ellipse cx="521.056" cy="49.074" rx="5.948" ry="8.49" fill="#FC8E19"/><ellipse cx="521.056" cy="49.074" rx="5.948" ry="8.49" fill="#FC8E19"/><ellipse cx="521.056" cy="49.074" rx="5.948" ry="8.49" fill="#FC8E19"/><ellipse cx="650.732" cy="79.637" rx="5.948" ry="8.49" fill="#FC8E19"/><ellipse cx="650.732" cy="79.637" rx="5.948" ry="8.49" fill="#FC8E19"/><ellipse cx="650.732" cy="79.637" rx="5.948" ry="8.49" fill="#FC8E19"/><ellipse cx="779.217" cy="43.98" rx="5.948" ry="8.49" fill="#FC8E19"/><ellipse cx="779.217" cy="43.98" rx="5.948" ry="8.49" fill="#FC8E19"/><ellipse cx="779.217" cy="43.98" rx="5.948" ry="8.49" fill="#FC8E19"/><ellipse cx="850.598" cy="201.893" rx="5.948" ry="8.49" fill="#FC8E19"/><ellipse cx="850.598" cy="201.893" rx="5.948" ry="8.49" fill="#FC8E19"/><ellipse cx="850.598" cy="201.893" rx="5.948" ry="8.49" fill="#FC8E19"/><ellipse cx="980.273" cy="259.624" rx="5.948" ry="8.49" fill="#FC8E19"/><ellipse cx="980.273" cy="259.624" rx="5.948" ry="8.49" fill="#FC8E19"/><ellipse cx="980.273" cy="259.624" rx="5.948" ry="8.49" fill="#FC8E19"/><ellipse cx="1079.02" cy="166.235" rx="5.948" ry="8.49" fill="#FC8E19"/><ellipse cx="1079.02" cy="166.235" rx="5.948" ry="8.49" fill="#FC8E19"/><ellipse cx="1079.02" cy="166.235" rx="5.948" ry="8.49" fill="#FC8E19"/><ellipse cx="362.828" cy="140.765" rx="5.948" ry="8.49" fill="#FC8E19"/><ellipse cx="362.828" cy="140.765" rx="5.948" ry="8.49" fill="#FC8E19"/><ellipse cx="362.828" cy="140.765" rx="5.948" ry="8.49" fill="#62AABA"/><ellipse cx="468.71" cy="96.617" rx="5.948" ry="8.49" fill="#FC8E19"/><ellipse cx="468.71" cy="96.617" rx="5.948" ry="8.49" fill="#FC8E19"/><ellipse cx="468.71" cy="96.617" rx="5.948" ry="8.49" fill="#62AABA"/><ellipse cx="559.126" cy="77.94" rx="5.948" ry="8.49" fill="#FC8E19"/><ellipse cx="559.126" cy="77.94" rx="5.948" ry="8.49" fill="#FC8E19"/><ellipse cx="559.126" cy="77.94" rx="5.948" ry="8.49" fill="#62AABA"/><ellipse cx="684.043" cy="55.866" rx="5.948" ry="8.49" fill="#FC8E19"/><ellipse cx="684.043" cy="55.866" rx="5.948" ry="8.49" fill="#FC8E19"/><ellipse cx="684.043" cy="55.866" rx="5.948" ry="8.49" fill="#62AABA"/><ellipse cx="793.493" cy="103.41" rx="5.948" ry="8.49" fill="#FC8E19"/><ellipse cx="793.493" cy="103.41" rx="5.948" ry="8.49" fill="#FC8E19"/><ellipse cx="793.493" cy="103.41" rx="5.948" ry="8.49" fill="#62AABA"/><ellipse cx="895.806" cy="230.759" rx="5.948" ry="8.49" fill="#FC8E19"/><ellipse cx="895.806" cy="230.759" rx="5.948" ry="8.49" fill="#FC8E19"/><ellipse cx="895.806" cy="230.759" rx="5.948" ry="8.49" fill="#62AABA"/><ellipse cx="1027.86" cy="259.624" rx="5.948" ry="8.49" fill="#FC8E19"/><ellipse cx="1027.86" cy="259.624" rx="5.948" ry="8.49" fill="#FC8E19"/><ellipse cx="1027.86" cy="259.624" rx="5.948" ry="8.49" fill="#62AABA"/><ellipse cx="1080.21" cy="101.711" rx="5.948" ry="8.49" fill="#FC8E19"/><ellipse cx="1080.21" cy="101.711" rx="5.948" ry="8.49" fill="#FC8E19"/><ellipse cx="1080.21" cy="101.711" rx="5.948" ry="8.49" fill="#62AABA"/><defs><filter id="a" x="0" y="0" width="1107" height="215" filterUnits="userSpaceOnUse" color-interpolation-filters="sRGB"><feFlood flood-opacity="0" result="BackgroundImageFix"/><feColorMatrix in="SourceAlpha" values="0 0 0 0 0 0 0 0 0 0 0 0 0 0 0 0 0 0 127 0" result="hardAlpha"/><feOffset dy="4"/><feGaussianBlur stdDeviation="2"/><feComposite in2="hardAlpha" operator="out"/><feColorMatrix values="0 0 0 0 0 0 0 0 0 0 0 0 0 0 0 0 0 0 0.25 0"/><feBlend in2="BackgroundImageFix" result="effect1_dropShadow_639_405"/><feBlend in="SourceGraphic" in2="effect1_dropShadow_639_405" result="shape"/></filter></defs></svg>